<mxfile host="app.diagrams.net" modified="2024-03-23T14:02:01.111Z" agent="Mozilla/5.0 (Windows NT 10.0; Win64; x64) AppleWebKit/537.36 (KHTML, like Gecko) Chrome/122.0.0.0 Safari/537.36" etag="-P_VjEbSWrmNs_U531a2" version="24.0.8" type="github">
  <diagram name="第 1 页" id="TNzSReZP8ukEuCBCMOGA">
    <mxGraphModel dx="1562" dy="810" grid="1" gridSize="10" guides="1" tooltips="1" connect="1" arrows="1" fold="1" page="1" pageScale="1" pageWidth="1169" pageHeight="827" background="#c1f5c1" math="0" shadow="0">
      <root>
        <mxCell id="0" />
        <mxCell id="1" parent="0" />
        <mxCell id="Gv70TaVpF7jsmHRN0daD-3" value="" style="rounded=0;whiteSpace=wrap;html=1;fontColor=default;movable=1;resizable=1;rotatable=1;deletable=1;editable=1;locked=0;connectable=1;shadow=1;dashed=1;" vertex="1" parent="1">
          <mxGeometry x="330" y="180" width="510" height="280" as="geometry" />
        </mxCell>
        <mxCell id="Gv70TaVpF7jsmHRN0daD-4" value="&lt;h1 style=&quot;margin-top: 0px;&quot;&gt;JVM运行原理解析&lt;/h1&gt;" style="text;html=1;whiteSpace=wrap;overflow=hidden;rounded=0;align=center;fontColor=#1A1A1A;" vertex="1" parent="1">
          <mxGeometry x="477" y="20" width="215" height="50" as="geometry" />
        </mxCell>
        <mxCell id="Gv70TaVpF7jsmHRN0daD-15" value="" style="edgeStyle=orthogonalEdgeStyle;rounded=0;orthogonalLoop=1;jettySize=auto;html=1;entryX=0;entryY=0.5;entryDx=0;entryDy=0;" edge="1" parent="1" source="Gv70TaVpF7jsmHRN0daD-6" target="Gv70TaVpF7jsmHRN0daD-14">
          <mxGeometry relative="1" as="geometry">
            <Array as="points">
              <mxPoint x="660" y="115" />
              <mxPoint x="660" y="115" />
            </Array>
          </mxGeometry>
        </mxCell>
        <mxCell id="Gv70TaVpF7jsmHRN0daD-6" value=".java文件" style="rounded=0;whiteSpace=wrap;html=1;" vertex="1" parent="1">
          <mxGeometry x="330" y="85" width="120" height="60" as="geometry" />
        </mxCell>
        <mxCell id="Gv70TaVpF7jsmHRN0daD-22" value="" style="edgeStyle=orthogonalEdgeStyle;rounded=0;orthogonalLoop=1;jettySize=auto;html=1;entryX=0.5;entryY=0;entryDx=0;entryDy=0;" edge="1" parent="1" source="Gv70TaVpF7jsmHRN0daD-14" target="Gv70TaVpF7jsmHRN0daD-23">
          <mxGeometry relative="1" as="geometry">
            <mxPoint x="719" y="230" as="targetPoint" />
          </mxGeometry>
        </mxCell>
        <mxCell id="Gv70TaVpF7jsmHRN0daD-14" value=".class字节码文件" style="whiteSpace=wrap;html=1;rounded=0;" vertex="1" parent="1">
          <mxGeometry x="720" y="85" width="120" height="60" as="geometry" />
        </mxCell>
        <mxCell id="Gv70TaVpF7jsmHRN0daD-16" value="通过编译转换为字节码文件" style="text;html=1;align=center;verticalAlign=middle;whiteSpace=wrap;rounded=0;fontSize=8;" vertex="1" parent="1">
          <mxGeometry x="535" y="85" width="100" height="30" as="geometry" />
        </mxCell>
        <mxCell id="Gv70TaVpF7jsmHRN0daD-28" style="edgeStyle=orthogonalEdgeStyle;rounded=0;orthogonalLoop=1;jettySize=auto;html=1;" edge="1" parent="1" source="Gv70TaVpF7jsmHRN0daD-23">
          <mxGeometry relative="1" as="geometry">
            <mxPoint x="700" y="255" as="targetPoint" />
          </mxGeometry>
        </mxCell>
        <mxCell id="Gv70TaVpF7jsmHRN0daD-23" value="类装载子系统" style="rounded=0;whiteSpace=wrap;html=1;fillColor=#dae8fc;strokeColor=#6c8ebf;" vertex="1" parent="1">
          <mxGeometry x="730" y="240" width="100" height="30" as="geometry" />
        </mxCell>
        <mxCell id="Gv70TaVpF7jsmHRN0daD-24" value="" style="rounded=0;whiteSpace=wrap;html=1;fillColor=#1ba1e2;fontColor=#ffffff;strokeColor=#006EAF;" vertex="1" parent="1">
          <mxGeometry x="340" y="200" width="360" height="250" as="geometry" />
        </mxCell>
        <mxCell id="Gv70TaVpF7jsmHRN0daD-25" value="JVM虚拟机" style="text;html=1;align=center;verticalAlign=middle;whiteSpace=wrap;rounded=0;fontSize=9;" vertex="1" parent="1">
          <mxGeometry x="560" y="180" width="50" height="20" as="geometry" />
        </mxCell>
        <mxCell id="Gv70TaVpF7jsmHRN0daD-26" value="运行时数据区（内存模型）" style="text;html=1;align=center;verticalAlign=middle;whiteSpace=wrap;rounded=0;fontSize=8;fontColor=#FFFFFF;" vertex="1" parent="1">
          <mxGeometry x="480" y="210" width="100" height="10" as="geometry" />
        </mxCell>
        <mxCell id="Gv70TaVpF7jsmHRN0daD-29" style="edgeStyle=orthogonalEdgeStyle;rounded=0;orthogonalLoop=1;jettySize=auto;html=1;" edge="1" parent="1" source="Gv70TaVpF7jsmHRN0daD-27">
          <mxGeometry relative="1" as="geometry">
            <mxPoint x="700" y="375" as="targetPoint" />
          </mxGeometry>
        </mxCell>
        <mxCell id="Gv70TaVpF7jsmHRN0daD-79" style="edgeStyle=orthogonalEdgeStyle;rounded=0;orthogonalLoop=1;jettySize=auto;html=1;exitX=0.5;exitY=0;exitDx=0;exitDy=0;entryX=0.5;entryY=0;entryDx=0;entryDy=0;" edge="1" parent="1" source="Gv70TaVpF7jsmHRN0daD-27" target="Gv70TaVpF7jsmHRN0daD-34">
          <mxGeometry relative="1" as="geometry">
            <Array as="points">
              <mxPoint x="780" y="320" />
              <mxPoint x="579" y="320" />
            </Array>
          </mxGeometry>
        </mxCell>
        <mxCell id="Gv70TaVpF7jsmHRN0daD-80" value="修改" style="edgeLabel;html=1;align=center;verticalAlign=middle;resizable=0;points=[];" vertex="1" connectable="0" parent="Gv70TaVpF7jsmHRN0daD-79">
          <mxGeometry x="-0.3276" y="1" relative="1" as="geometry">
            <mxPoint as="offset" />
          </mxGeometry>
        </mxCell>
        <mxCell id="Gv70TaVpF7jsmHRN0daD-84" value="" style="edgeStyle=orthogonalEdgeStyle;rounded=0;orthogonalLoop=1;jettySize=auto;html=1;" edge="1" parent="1" source="Gv70TaVpF7jsmHRN0daD-27" target="Gv70TaVpF7jsmHRN0daD-83">
          <mxGeometry relative="1" as="geometry">
            <Array as="points">
              <mxPoint x="780" y="440" />
              <mxPoint x="370" y="440" />
            </Array>
          </mxGeometry>
        </mxCell>
        <mxCell id="Gv70TaVpF7jsmHRN0daD-104" style="edgeStyle=orthogonalEdgeStyle;rounded=0;orthogonalLoop=1;jettySize=auto;html=1;curved=1;exitX=0.25;exitY=1;exitDx=0;exitDy=0;" edge="1" parent="1" source="Gv70TaVpF7jsmHRN0daD-27" target="Gv70TaVpF7jsmHRN0daD-103">
          <mxGeometry relative="1" as="geometry">
            <mxPoint x="805" y="390" as="sourcePoint" />
          </mxGeometry>
        </mxCell>
        <mxCell id="Gv70TaVpF7jsmHRN0daD-27" value="字节码执行引擎" style="rounded=0;whiteSpace=wrap;html=1;fillColor=#dae8fc;strokeColor=#6c8ebf;" vertex="1" parent="1">
          <mxGeometry x="730" y="360" width="100" height="30" as="geometry" />
        </mxCell>
        <mxCell id="Gv70TaVpF7jsmHRN0daD-31" value="本地方法栈" style="rounded=0;whiteSpace=wrap;html=1;fillColor=#647687;fontColor=#ffffff;strokeColor=#314354;" vertex="1" parent="1">
          <mxGeometry x="590" y="240" width="90" height="70" as="geometry" />
        </mxCell>
        <mxCell id="Gv70TaVpF7jsmHRN0daD-36" style="edgeStyle=orthogonalEdgeStyle;rounded=0;orthogonalLoop=1;jettySize=auto;html=1;exitX=0;exitY=0.25;exitDx=0;exitDy=0;entryX=1;entryY=0.25;entryDx=0;entryDy=0;" edge="1" parent="1" source="Gv70TaVpF7jsmHRN0daD-32" target="Gv70TaVpF7jsmHRN0daD-33">
          <mxGeometry relative="1" as="geometry" />
        </mxCell>
        <mxCell id="Gv70TaVpF7jsmHRN0daD-37" style="edgeStyle=orthogonalEdgeStyle;rounded=0;orthogonalLoop=1;jettySize=auto;html=1;exitX=0;exitY=0.5;exitDx=0;exitDy=0;entryX=1;entryY=0.5;entryDx=0;entryDy=0;" edge="1" parent="1" source="Gv70TaVpF7jsmHRN0daD-32" target="Gv70TaVpF7jsmHRN0daD-33">
          <mxGeometry relative="1" as="geometry" />
        </mxCell>
        <mxCell id="Gv70TaVpF7jsmHRN0daD-38" style="edgeStyle=orthogonalEdgeStyle;rounded=0;orthogonalLoop=1;jettySize=auto;html=1;exitX=0;exitY=0.75;exitDx=0;exitDy=0;entryX=1;entryY=0.75;entryDx=0;entryDy=0;" edge="1" parent="1" source="Gv70TaVpF7jsmHRN0daD-32" target="Gv70TaVpF7jsmHRN0daD-33">
          <mxGeometry relative="1" as="geometry" />
        </mxCell>
        <mxCell id="Gv70TaVpF7jsmHRN0daD-32" value="栈（线程）" style="rounded=0;whiteSpace=wrap;html=1;fillColor=#647687;fontColor=#ffffff;strokeColor=#314354;" vertex="1" parent="1">
          <mxGeometry x="477" y="240" width="100" height="70" as="geometry" />
        </mxCell>
        <mxCell id="Gv70TaVpF7jsmHRN0daD-33" value="堆" style="rounded=0;whiteSpace=wrap;html=1;fillColor=#ffe6cc;strokeColor=#d79b00;" vertex="1" parent="1">
          <mxGeometry x="360" y="240" width="100" height="70" as="geometry" />
        </mxCell>
        <mxCell id="Gv70TaVpF7jsmHRN0daD-34" value="程序计数器" style="rounded=0;whiteSpace=wrap;html=1;fillColor=#647687;fontColor=#ffffff;strokeColor=#314354;" vertex="1" parent="1">
          <mxGeometry x="477" y="340" width="203" height="70" as="geometry" />
        </mxCell>
        <mxCell id="Gv70TaVpF7jsmHRN0daD-39" style="edgeStyle=orthogonalEdgeStyle;rounded=0;orthogonalLoop=1;jettySize=auto;html=1;exitX=0.25;exitY=0;exitDx=0;exitDy=0;entryX=0.25;entryY=1;entryDx=0;entryDy=0;" edge="1" parent="1" source="Gv70TaVpF7jsmHRN0daD-35" target="Gv70TaVpF7jsmHRN0daD-33">
          <mxGeometry relative="1" as="geometry" />
        </mxCell>
        <mxCell id="Gv70TaVpF7jsmHRN0daD-40" style="edgeStyle=orthogonalEdgeStyle;rounded=0;orthogonalLoop=1;jettySize=auto;html=1;exitX=0.5;exitY=0;exitDx=0;exitDy=0;entryX=0.5;entryY=1;entryDx=0;entryDy=0;" edge="1" parent="1" source="Gv70TaVpF7jsmHRN0daD-35" target="Gv70TaVpF7jsmHRN0daD-33">
          <mxGeometry relative="1" as="geometry" />
        </mxCell>
        <mxCell id="Gv70TaVpF7jsmHRN0daD-41" style="edgeStyle=orthogonalEdgeStyle;rounded=0;orthogonalLoop=1;jettySize=auto;html=1;exitX=0.75;exitY=0;exitDx=0;exitDy=0;entryX=0.75;entryY=1;entryDx=0;entryDy=0;" edge="1" parent="1" source="Gv70TaVpF7jsmHRN0daD-35" target="Gv70TaVpF7jsmHRN0daD-33">
          <mxGeometry relative="1" as="geometry" />
        </mxCell>
        <mxCell id="Gv70TaVpF7jsmHRN0daD-35" value="方法区（元空间）&lt;div&gt;常量+静态变量+类信息&lt;/div&gt;" style="rounded=0;whiteSpace=wrap;html=1;fillColor=#ffe6cc;strokeColor=#d79b00;" vertex="1" parent="1">
          <mxGeometry x="360" y="340" width="100" height="70" as="geometry" />
        </mxCell>
        <mxCell id="Gv70TaVpF7jsmHRN0daD-42" value="" style="rounded=0;whiteSpace=wrap;html=1;fillColor=#ffe6cc;strokeColor=#d79b00;" vertex="1" parent="1">
          <mxGeometry x="200" y="362.5" width="30" height="20" as="geometry" />
        </mxCell>
        <mxCell id="Gv70TaVpF7jsmHRN0daD-43" value="引用类型（指针）" style="text;html=1;align=center;verticalAlign=middle;whiteSpace=wrap;rounded=0;" vertex="1" parent="1">
          <mxGeometry x="230" y="357.5" width="110" height="30" as="geometry" />
        </mxCell>
        <mxCell id="Gv70TaVpF7jsmHRN0daD-44" value="" style="rounded=0;whiteSpace=wrap;html=1;fillColor=#647687;fontColor=#ffffff;strokeColor=#314354;" vertex="1" parent="1">
          <mxGeometry x="200" y="392.5" width="30" height="20" as="geometry" />
        </mxCell>
        <mxCell id="Gv70TaVpF7jsmHRN0daD-45" value="方法运行即存在" style="text;html=1;align=center;verticalAlign=middle;whiteSpace=wrap;rounded=0;" vertex="1" parent="1">
          <mxGeometry x="230" y="387.5" width="110" height="30" as="geometry" />
        </mxCell>
        <mxCell id="Gv70TaVpF7jsmHRN0daD-46" value="" style="rounded=0;whiteSpace=wrap;html=1;rotation=90;movable=1;resizable=1;rotatable=1;deletable=1;editable=1;locked=0;connectable=1;" vertex="1" parent="1">
          <mxGeometry x="-120" y="210" width="440" height="190" as="geometry" />
        </mxCell>
        <mxCell id="Gv70TaVpF7jsmHRN0daD-47" value="&lt;b&gt;&lt;font style=&quot;font-size: 14px;&quot;&gt;栈(线程)&lt;/font&gt;&lt;/b&gt;" style="text;html=1;align=center;verticalAlign=middle;whiteSpace=wrap;rounded=0;" vertex="1" parent="1">
          <mxGeometry x="70" y="80" width="60" height="30" as="geometry" />
        </mxCell>
        <mxCell id="Gv70TaVpF7jsmHRN0daD-49" value="程序计数器" style="rounded=0;whiteSpace=wrap;html=1;fillColor=#647687;fontColor=#ffffff;strokeColor=#314354;" vertex="1" parent="1">
          <mxGeometry x="20" y="110" width="160" height="20" as="geometry" />
        </mxCell>
        <mxCell id="Gv70TaVpF7jsmHRN0daD-50" value="" style="rounded=0;whiteSpace=wrap;html=1;fillColor=#647687;fontColor=#ffffff;strokeColor=#314354;" vertex="1" parent="1">
          <mxGeometry x="20" y="150" width="160" height="320" as="geometry" />
        </mxCell>
        <mxCell id="Gv70TaVpF7jsmHRN0daD-52" value="栈（线程）" style="text;html=1;align=center;verticalAlign=middle;whiteSpace=wrap;rounded=0;fontSize=10;fontColor=#FFFFFF;" vertex="1" parent="1">
          <mxGeometry x="50" y="160" width="100" height="10" as="geometry" />
        </mxCell>
        <mxCell id="Gv70TaVpF7jsmHRN0daD-54" value="本地方法栈" style="rounded=0;whiteSpace=wrap;html=1;fillColor=#647687;fontColor=#ffffff;strokeColor=#314354;" vertex="1" parent="1">
          <mxGeometry x="20" y="480" width="160" height="30" as="geometry" />
        </mxCell>
        <mxCell id="Gv70TaVpF7jsmHRN0daD-55" value="" style="rounded=0;whiteSpace=wrap;html=1;fillColor=#f8cecc;strokeColor=#b85450;movable=1;resizable=1;rotatable=1;deletable=1;editable=1;locked=0;connectable=1;" vertex="1" parent="1">
          <mxGeometry x="30" y="185" width="140" height="135" as="geometry" />
        </mxCell>
        <mxCell id="Gv70TaVpF7jsmHRN0daD-56" value="" style="rounded=0;whiteSpace=wrap;html=1;fillColor=#f8cecc;strokeColor=#b85450;movable=1;resizable=1;rotatable=1;deletable=1;editable=1;locked=0;connectable=1;" vertex="1" parent="1">
          <mxGeometry x="30" y="330" width="140" height="130" as="geometry" />
        </mxCell>
        <mxCell id="Gv70TaVpF7jsmHRN0daD-57" value="栈帧（方法）" style="text;html=1;align=center;verticalAlign=middle;whiteSpace=wrap;rounded=0;fontSize=10;fontColor=#000000;labelBackgroundColor=none;" vertex="1" parent="1">
          <mxGeometry x="50" y="190" width="100" height="10" as="geometry" />
        </mxCell>
        <mxCell id="Gv70TaVpF7jsmHRN0daD-58" value="栈帧（方法）" style="text;html=1;align=center;verticalAlign=middle;whiteSpace=wrap;rounded=0;fontSize=10;fontColor=#000000;labelBackgroundColor=none;" vertex="1" parent="1">
          <mxGeometry x="50" y="332" width="100" height="10" as="geometry" />
        </mxCell>
        <mxCell id="Gv70TaVpF7jsmHRN0daD-59" value="&lt;font style=&quot;font-size: 10px;&quot;&gt;局部变量表&lt;/font&gt;" style="rounded=0;whiteSpace=wrap;html=1;fillColor=#d5e8d4;strokeColor=#82b366;" vertex="1" parent="1">
          <mxGeometry x="50" y="202.5" width="95" height="17.5" as="geometry" />
        </mxCell>
        <mxCell id="Gv70TaVpF7jsmHRN0daD-60" value="&lt;font style=&quot;font-size: 10px;&quot;&gt;操作数栈&lt;/font&gt;" style="rounded=0;whiteSpace=wrap;html=1;fillColor=#d5e8d4;strokeColor=#82b366;" vertex="1" parent="1">
          <mxGeometry x="50" y="230" width="95" height="20" as="geometry" />
        </mxCell>
        <mxCell id="Gv70TaVpF7jsmHRN0daD-61" value="&lt;font style=&quot;font-size: 10px;&quot;&gt;动态引用&lt;/font&gt;" style="rounded=0;whiteSpace=wrap;html=1;fillColor=#d5e8d4;strokeColor=#82b366;" vertex="1" parent="1">
          <mxGeometry x="50" y="260" width="95" height="20" as="geometry" />
        </mxCell>
        <mxCell id="Gv70TaVpF7jsmHRN0daD-62" value="&lt;font style=&quot;font-size: 10px;&quot;&gt;方法出口&lt;/font&gt;" style="rounded=0;whiteSpace=wrap;html=1;fillColor=#d5e8d4;strokeColor=#82b366;" vertex="1" parent="1">
          <mxGeometry x="50" y="290" width="95" height="20" as="geometry" />
        </mxCell>
        <mxCell id="Gv70TaVpF7jsmHRN0daD-63" value="" style="curved=1;endArrow=classic;html=1;rounded=0;" edge="1" parent="1">
          <mxGeometry width="50" height="50" relative="1" as="geometry">
            <mxPoint x="490" y="320" as="sourcePoint" />
            <mxPoint x="540" y="270" as="targetPoint" />
            <Array as="points">
              <mxPoint x="540" y="320" />
              <mxPoint x="490" y="270" />
            </Array>
          </mxGeometry>
        </mxCell>
        <mxCell id="Gv70TaVpF7jsmHRN0daD-65" value="" style="curved=1;endArrow=classic;html=1;rounded=0;exitX=0;exitY=0.5;exitDx=0;exitDy=0;" edge="1" parent="1" source="Gv70TaVpF7jsmHRN0daD-62">
          <mxGeometry width="50" height="50" relative="1" as="geometry">
            <mxPoint x="220" y="320" as="sourcePoint" />
            <mxPoint x="30" y="370" as="targetPoint" />
            <Array as="points">
              <mxPoint x="20" y="330" />
              <mxPoint x="10" y="380" />
            </Array>
          </mxGeometry>
        </mxCell>
        <mxCell id="Gv70TaVpF7jsmHRN0daD-67" value="&lt;font style=&quot;font-size: 10px;&quot;&gt;局部变量表&lt;/font&gt;" style="rounded=0;whiteSpace=wrap;html=1;fillColor=#d5e8d4;strokeColor=#82b366;" vertex="1" parent="1">
          <mxGeometry x="50" y="350" width="95" height="17.5" as="geometry" />
        </mxCell>
        <mxCell id="Gv70TaVpF7jsmHRN0daD-68" value="&lt;font style=&quot;font-size: 10px;&quot;&gt;操作数栈&lt;/font&gt;" style="rounded=0;whiteSpace=wrap;html=1;fillColor=#d5e8d4;strokeColor=#82b366;" vertex="1" parent="1">
          <mxGeometry x="50" y="377.5" width="95" height="20" as="geometry" />
        </mxCell>
        <mxCell id="Gv70TaVpF7jsmHRN0daD-69" value="&lt;font style=&quot;font-size: 10px;&quot;&gt;动态引用&lt;/font&gt;" style="rounded=0;whiteSpace=wrap;html=1;fillColor=#d5e8d4;strokeColor=#82b366;" vertex="1" parent="1">
          <mxGeometry x="50" y="407.5" width="95" height="20" as="geometry" />
        </mxCell>
        <mxCell id="Gv70TaVpF7jsmHRN0daD-70" value="&lt;font style=&quot;font-size: 10px;&quot;&gt;方法出口&lt;/font&gt;" style="rounded=0;whiteSpace=wrap;html=1;fillColor=#d5e8d4;strokeColor=#82b366;" vertex="1" parent="1">
          <mxGeometry x="50" y="437.5" width="95" height="20" as="geometry" />
        </mxCell>
        <mxCell id="Gv70TaVpF7jsmHRN0daD-71" value="" style="rounded=0;whiteSpace=wrap;html=1;" vertex="1" parent="1">
          <mxGeometry x="200" y="85" width="120" height="110" as="geometry" />
        </mxCell>
        <mxCell id="Gv70TaVpF7jsmHRN0daD-73" value="a=1" style="rounded=1;whiteSpace=wrap;html=1;" vertex="1" parent="1">
          <mxGeometry x="220" y="100" width="90" height="30" as="geometry" />
        </mxCell>
        <mxCell id="Gv70TaVpF7jsmHRN0daD-74" value="b=a+30" style="rounded=1;whiteSpace=wrap;html=1;" vertex="1" parent="1">
          <mxGeometry x="220" y="150" width="90" height="30" as="geometry" />
        </mxCell>
        <mxCell id="Gv70TaVpF7jsmHRN0daD-78" style="edgeStyle=orthogonalEdgeStyle;rounded=0;orthogonalLoop=1;jettySize=auto;html=1;" edge="1" parent="1" source="Gv70TaVpF7jsmHRN0daD-75" target="Gv70TaVpF7jsmHRN0daD-33">
          <mxGeometry relative="1" as="geometry" />
        </mxCell>
        <mxCell id="Gv70TaVpF7jsmHRN0daD-75" value="原理就是&lt;b&gt;弹出&lt;/b&gt;与&lt;b&gt;压进&lt;/b&gt;" style="rounded=0;whiteSpace=wrap;html=1;" vertex="1" parent="1">
          <mxGeometry x="200" y="210" width="120" height="110" as="geometry" />
        </mxCell>
        <mxCell id="Gv70TaVpF7jsmHRN0daD-77" value="" style="curved=1;endArrow=classic;html=1;rounded=0;exitX=1;exitY=0.5;exitDx=0;exitDy=0;entryX=0;entryY=0.5;entryDx=0;entryDy=0;" edge="1" parent="1" source="Gv70TaVpF7jsmHRN0daD-59" target="Gv70TaVpF7jsmHRN0daD-75">
          <mxGeometry width="50" height="50" relative="1" as="geometry">
            <mxPoint x="220" y="320" as="sourcePoint" />
            <mxPoint x="260" y="270" as="targetPoint" />
            <Array as="points">
              <mxPoint x="160" y="240" />
              <mxPoint x="190" y="230" />
            </Array>
          </mxGeometry>
        </mxCell>
        <mxCell id="Gv70TaVpF7jsmHRN0daD-83" value=".class" style="ellipse;whiteSpace=wrap;html=1;fillColor=#e1d5e7;strokeColor=#9673a6;rounded=0;" vertex="1" parent="1">
          <mxGeometry x="340" y="397.5" width="60" height="35" as="geometry" />
        </mxCell>
        <mxCell id="Gv70TaVpF7jsmHRN0daD-87" value="" style="rounded=0;whiteSpace=wrap;html=1;fontColor=default;movable=1;resizable=1;rotatable=1;deletable=1;editable=1;locked=0;connectable=1;shadow=1;dashed=1;fillColor=#ffe6cc;" vertex="1" parent="1">
          <mxGeometry x="330" y="510" width="510" height="90" as="geometry" />
        </mxCell>
        <mxCell id="Gv70TaVpF7jsmHRN0daD-89" value="&lt;b&gt;&lt;font style=&quot;font-size: 14px;&quot;&gt;堆&lt;/font&gt;&lt;/b&gt;" style="text;html=1;align=center;verticalAlign=middle;whiteSpace=wrap;rounded=0;" vertex="1" parent="1">
          <mxGeometry x="316" y="507" width="60" height="30" as="geometry" />
        </mxCell>
        <mxCell id="Gv70TaVpF7jsmHRN0daD-91" value="Eden&lt;div&gt;（8/10）&lt;/div&gt;" style="rounded=1;whiteSpace=wrap;html=1;fillColor=#b0e3e6;strokeColor=#0e8088;" vertex="1" parent="1">
          <mxGeometry x="360" y="532.5" width="90" height="45" as="geometry" />
        </mxCell>
        <mxCell id="Gv70TaVpF7jsmHRN0daD-92" value="s0&lt;div&gt;(1/10)&lt;/div&gt;" style="rounded=1;whiteSpace=wrap;html=1;fillColor=#b0e3e6;strokeColor=#0e8088;" vertex="1" parent="1">
          <mxGeometry x="480" y="532.5" width="60" height="45" as="geometry" />
        </mxCell>
        <mxCell id="Gv70TaVpF7jsmHRN0daD-93" value="s1&lt;div&gt;(1/10)&lt;/div&gt;" style="rounded=1;whiteSpace=wrap;html=1;fillColor=#b0e3e6;strokeColor=#0e8088;" vertex="1" parent="1">
          <mxGeometry x="570" y="532.5" width="60" height="45" as="geometry" />
        </mxCell>
        <mxCell id="Gv70TaVpF7jsmHRN0daD-94" value="&lt;b&gt;&lt;font style=&quot;font-size: 19px;&quot;&gt;2/3&lt;/font&gt;&lt;/b&gt;" style="rounded=1;whiteSpace=wrap;html=1;fillColor=#e1d5e7;strokeColor=#9673a6;" vertex="1" parent="1">
          <mxGeometry x="670" y="532.5" width="160" height="45" as="geometry" />
        </mxCell>
        <mxCell id="Gv70TaVpF7jsmHRN0daD-95" value="" style="shape=curlyBracket;whiteSpace=wrap;html=1;rounded=1;labelPosition=left;verticalLabelPosition=middle;align=right;verticalAlign=middle;rotation=-90;" vertex="1" parent="1">
          <mxGeometry x="480" y="490" width="35" height="225" as="geometry" />
        </mxCell>
        <mxCell id="Gv70TaVpF7jsmHRN0daD-96" value="" style="shape=curlyBracket;whiteSpace=wrap;html=1;rounded=1;labelPosition=left;verticalLabelPosition=middle;align=right;verticalAlign=middle;rotation=90;" vertex="1" parent="1">
          <mxGeometry x="538.75" y="460" width="32.5" height="110" as="geometry" />
        </mxCell>
        <mxCell id="Gv70TaVpF7jsmHRN0daD-97" value="&lt;b&gt;&lt;font style=&quot;font-size: 14px;&quot;&gt;Survivor区&lt;/font&gt;&lt;/b&gt;" style="text;html=1;align=center;verticalAlign=middle;whiteSpace=wrap;rounded=0;" vertex="1" parent="1">
          <mxGeometry x="510" y="470" width="94" height="30" as="geometry" />
        </mxCell>
        <mxCell id="Gv70TaVpF7jsmHRN0daD-98" value="&lt;b&gt;&lt;font style=&quot;font-size: 14px;&quot;&gt;年轻代&lt;/font&gt;&lt;/b&gt;" style="text;html=1;align=center;verticalAlign=middle;whiteSpace=wrap;rounded=0;" vertex="1" parent="1">
          <mxGeometry x="450" y="620" width="94" height="30" as="geometry" />
        </mxCell>
        <mxCell id="Gv70TaVpF7jsmHRN0daD-99" value="&lt;b&gt;&lt;font style=&quot;font-size: 14px;&quot;&gt;老年代&lt;/font&gt;&lt;/b&gt;" style="text;html=1;align=center;verticalAlign=middle;whiteSpace=wrap;rounded=0;" vertex="1" parent="1">
          <mxGeometry x="700" y="620" width="94" height="30" as="geometry" />
        </mxCell>
        <mxCell id="Gv70TaVpF7jsmHRN0daD-100" value="" style="shape=curlyBracket;whiteSpace=wrap;html=1;rounded=1;labelPosition=left;verticalLabelPosition=middle;align=right;verticalAlign=middle;rotation=-90;" vertex="1" parent="1">
          <mxGeometry x="733.75" y="528.75" width="35" height="147.5" as="geometry" />
        </mxCell>
        <mxCell id="Gv70TaVpF7jsmHRN0daD-101" value="New都是在Eden" style="ellipse;whiteSpace=wrap;html=1;" vertex="1" parent="1">
          <mxGeometry x="352.5" y="488.75" width="75" height="40" as="geometry" />
        </mxCell>
        <mxCell id="Gv70TaVpF7jsmHRN0daD-103" value="&lt;h1 style=&quot;margin-top: 0px; font-size: 21px;&quot;&gt;&lt;font style=&quot;font-size: 21px;&quot;&gt;Minor GC&lt;/font&gt;（年轻代垃圾回收）&lt;/h1&gt;&lt;p&gt;由字节码执行引擎开启垃圾收集线程，针对整个年轻代进行垃圾回收&lt;/p&gt;" style="text;html=1;whiteSpace=wrap;overflow=hidden;rounded=0;" vertex="1" parent="1">
          <mxGeometry x="30" y="537" width="250" height="120" as="geometry" />
        </mxCell>
        <mxCell id="Gv70TaVpF7jsmHRN0daD-105" value="&lt;h1 style=&quot;margin-top: 0px;&quot;&gt;&lt;b style=&quot;&quot;&gt;&lt;font style=&quot;font-size: 22px;&quot;&gt;可达性分析算法&lt;/font&gt;&lt;/b&gt;&lt;br&gt;&lt;/h1&gt;&lt;p&gt;以&lt;b&gt;GC Roots&lt;/b&gt;对象作为起点，从节点开始向下搜索引用的对象，找到的对象标记为&lt;b&gt;非垃圾对象&lt;/b&gt;，未标记的为垃圾对象，非垃圾对象会移动至&lt;b&gt;Survivor区，垃圾对象留在Eden，GC线程结束后进行回收。然后Survivor区对象分代年龄+1，当年龄到达设定分代节点后，该对象会移动至老年代&lt;/b&gt;&lt;/p&gt;" style="text;html=1;whiteSpace=wrap;overflow=hidden;rounded=0;" vertex="1" parent="1">
          <mxGeometry x="30" y="650" width="240" height="147" as="geometry" />
        </mxCell>
        <mxCell id="Gv70TaVpF7jsmHRN0daD-106" style="edgeStyle=orthogonalEdgeStyle;rounded=0;orthogonalLoop=1;jettySize=auto;html=1;curved=1;exitX=0.5;exitY=1;exitDx=0;exitDy=0;entryX=0.5;entryY=0;entryDx=0;entryDy=0;" edge="1" parent="1" source="Gv70TaVpF7jsmHRN0daD-27" target="Gv70TaVpF7jsmHRN0daD-107">
          <mxGeometry relative="1" as="geometry">
            <mxPoint x="1030" y="577.5" as="sourcePoint" />
            <mxPoint x="400" y="670" as="targetPoint" />
          </mxGeometry>
        </mxCell>
        <mxCell id="Gv70TaVpF7jsmHRN0daD-107" value="&lt;h1 style=&quot;margin-top: 0px; font-size: 21px;&quot;&gt;&lt;font style=&quot;font-size: 21px;&quot;&gt;Full GC&lt;/font&gt;（堆垃圾回收）&lt;/h1&gt;&lt;p&gt;当老年代也存满对象时候，会进行堆垃圾回收机制，如果频繁触发Full GC则会报&lt;b&gt;OOM（内存溢出）系统会宕机。&lt;/b&gt;&lt;/p&gt;" style="text;html=1;whiteSpace=wrap;overflow=hidden;rounded=0;" vertex="1" parent="1">
          <mxGeometry x="590" y="670" width="250" height="120" as="geometry" />
        </mxCell>
      </root>
    </mxGraphModel>
  </diagram>
</mxfile>
